<svg width="138" height="172" viewBox="0 0 138 172" fill="none" xmlns="http://www.w3.org/2000/svg">
<path d="M76.75 155.625H3.5625V44.1562L40.9375 3.96875H121.094V109.187" stroke="#2D9CDB" stroke-width="2.8125"/>
<path d="M41 3.96875L40.9375 44.1562H3.5625" stroke="#2D9CDB" stroke-width="2.8125"/>
<path d="M19.6562 128.75H57.1875" stroke="#2D9CDB" stroke-width="2.8125"/>
<path d="M19.6562 108.344H66.5625" stroke="#2D9CDB" stroke-width="2.8125"/>
<path d="M19.6562 89.2812H104.063" stroke="#2D9CDB" stroke-width="2.8125"/>
<path d="M19.6562 70.2188H104.063" stroke="#2D9CDB" stroke-width="2.8125"/>
<path d="M103.125 168.031C120.401 168.031 134.406 154.026 134.406 136.75C134.406 119.474 120.401 105.469 103.125 105.469C85.8488 105.469 71.8438 119.474 71.8438 136.75C71.8438 154.026 85.8488 168.031 103.125 168.031Z" stroke="#2D9CDB" stroke-width="2.8125" stroke-linecap="round"/>
<path d="M91.0312 124.625L115.25 148.844" stroke="#2D9CDB" stroke-width="2.8125"/>
<path d="M91.0312 148.844L115.25 124.625" stroke="#2D9CDB" stroke-width="2.8125"/>
</svg>
