<svg width="24" height="22" viewBox="0 0 24 22" fill="none" xmlns="http://www.w3.org/2000/svg">
<path fill-rule="evenodd" clip-rule="evenodd" d="M4.13031 1.52848e-06C4.14772 1.52848e-06 4.1652 1.52848e-06 4.18273 1.52848e-06H19.8506C20.5945 -3.19333e-05 21.2305 -6.53772e-05 21.7388 0.0640473C22.2778 0.132053 22.7988 0.28475 23.2267 0.686235C23.6623 1.0948 23.8353 1.60456 23.9112 2.13492C23.981 2.62211 23.981 3.22791 23.9809 3.91902V4.78516C23.9809 5.33004 23.9809 5.8011 23.9403 6.19389C23.8965 6.61657 23.8008 7.01313 23.571 7.39385C23.343 7.77171 23.036 8.04599 22.6819 8.29186C22.3485 8.52349 21.9225 8.76329 21.4214 9.04538L18.1395 10.8928C17.3924 11.3134 17.1323 11.4649 16.9586 11.6156C16.5598 11.9619 16.3313 12.346 16.224 12.8274C16.1782 13.0332 16.1732 13.2923 16.1732 14.0795V17.1268C16.1733 18.132 16.1733 18.9855 16.0699 19.6416C15.9598 20.3393 15.7045 21.0083 15.0353 21.4269C14.3812 21.836 13.6608 21.7984 12.9606 21.6321C12.2864 21.4721 11.4554 21.1471 10.4584 20.7573L10.3614 20.7195C9.89442 20.5369 9.48542 20.3771 9.16166 20.2099C8.81371 20.0302 8.49059 19.8067 8.24336 19.4588C7.99336 19.107 7.89313 18.7297 7.84843 18.3441C7.80768 17.9924 7.80771 17.5703 7.80774 17.0996V14.0795C7.80774 13.2923 7.80278 13.0332 7.7569 12.8274C7.64958 12.346 7.42117 11.9619 7.02233 11.6156C6.84866 11.4649 6.58853 11.3134 5.84146 10.8928L2.5595 9.04538C2.05845 8.76329 1.63241 8.52349 1.29897 8.29186C0.945007 8.04599 0.637906 7.77171 0.409875 7.39385C0.180116 7.01313 0.0844486 6.61657 0.0406583 6.19389C-4.23078e-05 5.80108 -2.00318e-05 5.33004 2.27598e-06 4.78516L1.3445e-05 3.97599C1.3445e-05 3.95693 2.27598e-06 3.93793 2.27598e-06 3.91901C-4.23397e-05 3.2279 -9.8095e-05 2.62211 0.0697254 2.13492C0.145717 1.60456 0.318737 1.0948 0.754208 0.686235C1.18213 0.28475 1.70315 0.132053 2.24221 0.0640473C2.75047 -6.53772e-05 3.38641 -3.19333e-05 4.13031 1.52848e-06ZM2.45159 1.72398C2.07943 1.77093 1.96108 1.8481 1.89897 1.90638C1.8444 1.95757 1.7724 2.04769 1.72589 2.37225C1.67511 2.72662 1.6731 3.21086 1.6731 3.97599V4.74541C1.6731 5.34126 1.67413 5.72506 1.70483 6.02149C1.73343 6.29756 1.78254 6.43031 1.84234 6.5294C1.90386 6.63136 2.00603 6.74589 2.25347 6.91776C2.51416 7.09884 2.87031 7.30033 3.41302 7.60584L6.66219 9.43487C6.69262 9.45205 6.72258 9.46889 6.7521 9.48551C7.37527 9.83608 7.79969 10.0749 8.11916 10.3522C8.77876 10.9248 9.20195 11.6204 9.38989 12.4634C9.48123 12.8731 9.48108 13.3324 9.48085 13.9809C9.48085 14.0132 9.48083 14.0461 9.48083 14.0795V17.057C9.48083 17.5837 9.48214 17.9076 9.5104 18.1514C9.53595 18.3719 9.57622 18.4461 9.60721 18.4897C9.64099 18.5372 9.70789 18.609 9.92922 18.7233C10.1661 18.8457 10.4926 18.9744 11.008 19.1758C12.0799 19.5949 12.8009 19.8746 13.3472 20.0043C13.8811 20.1311 14.0569 20.0654 14.148 20.0084C14.2238 19.961 14.3409 19.8648 14.4172 19.381C14.4976 18.8709 14.5001 18.1512 14.5001 17.057V14.0795C14.5001 14.0461 14.5001 14.0132 14.5001 13.9809C14.4999 13.3324 14.4996 12.8731 14.591 12.4634C14.7789 11.6204 15.2021 10.9248 15.8618 10.3522C16.1812 10.0749 16.6056 9.83608 17.2288 9.48551C17.2583 9.46889 17.2883 9.45205 17.3188 9.43487L20.5679 7.60584C21.1107 7.30033 21.4668 7.09884 21.7275 6.91776C21.9749 6.74589 22.0771 6.63136 22.1386 6.5294C22.1984 6.43031 22.2475 6.29756 22.276 6.02149C22.3068 5.72506 22.3078 5.34126 22.3078 4.74541V3.97599C22.3078 3.21086 22.3058 2.72662 22.2551 2.37225C22.2086 2.04769 22.1365 1.95757 22.082 1.90638C22.0198 1.8481 21.9015 1.77093 21.5294 1.72398C21.1383 1.67466 20.6091 1.67309 19.7982 1.67309H4.18273C3.3718 1.67309 2.84262 1.67466 2.45159 1.72398Z" fill="#2D9CDB"/>
</svg>
