<svg width="31" height="27" viewBox="0 0 31 27" fill="none" xmlns="http://www.w3.org/2000/svg">
<path fill-rule="evenodd" clip-rule="evenodd" d="M0 4.05C0 1.81325 1.81325 0 4.05 0H10.2039C11.9472 0 13.4949 1.11549 14.0461 2.76928L14.4731 4.05H25.65C27.1412 4.05 28.35 5.25883 28.35 6.75V9.46297C29.8991 9.6142 31.0241 11.0646 30.7388 12.633L28.5298 24.783C28.2964 26.0667 27.1782 27 25.8733 27H2.7C1.20883 27 0 25.7912 0 24.3V4.05ZM25.65 9.45V6.75H14.4731C13.3109 6.75 12.2791 6.00634 11.9116 4.90382L11.4847 3.62309C11.3009 3.07183 10.785 2.7 10.2039 2.7H4.05C3.30442 2.7 2.7 3.30442 2.7 4.05V13.8657L3.17829 11.5938C3.44133 10.3444 4.54359 9.45 5.82038 9.45H25.65ZM3.19456 24.3C3.26399 24.1797 3.31587 24.0465 3.34604 23.9031L5.82038 12.15H27H28.0824L25.8733 24.3H3.19456Z" fill="#2D9CDB"/>
</svg>
