<svg width="32" height="29" viewBox="0 0 32 29" fill="none" xmlns="http://www.w3.org/2000/svg">
<path d="M23.0409 16.9989L21.8165 19.4427H10.1835L8.95915 16.9977H2.83659C2.59517 16.9978 2.35613 17.0453 2.13315 17.1377C1.91016 17.23 1.70759 17.3654 1.53703 17.5359C1.36646 17.7064 1.23124 17.9089 1.13909 18.1316C1.04694 18.3544 0.999681 18.5931 1 18.834V26.1667C1.00016 26.6529 1.19371 27.1191 1.5381 27.4629C1.8825 27.8066 2.34954 27.9998 2.83659 28H29.1634C29.6505 27.9998 30.1175 27.8066 30.4619 27.4629C30.8063 27.1191 30.9998 26.6529 31 26.1667V18.834C31 18.3478 30.8065 17.8814 30.4621 17.5375C30.1177 17.1936 29.6506 17.0003 29.1634 17.0001L23.0409 16.9989Z" stroke="#2D9CDB" stroke-width="2" stroke-linecap="round" stroke-linejoin="round"/>
<path d="M22.4289 22.4995H9.57156C8.89535 22.4995 8.34717 23.0467 8.34717 23.7217C8.34717 24.3967 8.89535 24.9439 9.57156 24.9439H22.4289C23.1051 24.9439 23.6533 24.3967 23.6533 23.7217C23.6533 23.0467 23.1051 22.4995 22.4289 22.4995Z" stroke="#2D9CDB" stroke-width="2" stroke-linecap="round" stroke-linejoin="round"/>
<path d="M23.6528 2.33112H26.4211C26.8481 2.33123 27.2617 2.47978 27.5908 2.75126C27.92 3.02273 28.1441 3.40017 28.2248 3.81871L30.9998 18.2211" stroke="#2D9CDB" stroke-width="2" stroke-linecap="round" stroke-linejoin="round"/>
<path d="M1 18.2211L3.77439 3.81875C3.84597 3.44731 4.0309 3.10707 4.30381 2.84467C4.57672 2.58227 4.92426 2.41056 5.29878 2.35307L8.34756 2.34698" stroke="#2D9CDB" stroke-width="2" stroke-linecap="round" stroke-linejoin="round"/>
<path d="M4.67334 16.9989V14.4425C4.67334 14.2017 4.72086 13.9633 4.8132 13.7408C4.90554 13.5183 5.04087 13.3162 5.21148 13.1459C5.38209 12.9757 5.58462 12.8407 5.80752 12.7486C6.03041 12.6565 6.2693 12.6091 6.51054 12.6092H25.4898C25.731 12.6091 25.9699 12.6565 26.1928 12.7486C26.4157 12.8407 26.6182 12.9757 26.7889 13.1459C26.9595 13.3162 27.0948 13.5183 27.1871 13.7408C27.2795 13.9633 27.327 14.2017 27.327 14.4425V16.9989" stroke="#2D9CDB" stroke-width="2" stroke-linecap="round" stroke-linejoin="round"/>
<path d="M5.89795 12.6122V10.575C5.89787 10.3342 5.94531 10.0957 6.03758 9.87325C6.12984 9.65075 6.26511 9.44857 6.43566 9.27827C6.60621 9.10797 6.8087 8.97287 7.03156 8.8807C7.25443 8.78853 7.4933 8.74109 7.73453 8.74109H24.265C24.5063 8.74109 24.7451 8.78853 24.968 8.8807C25.1909 8.97287 25.3933 9.10797 25.5639 9.27827C25.7345 9.44857 25.8697 9.65075 25.962 9.87325C26.0542 10.0957 26.1017 10.3342 26.1016 10.575V12.6122" stroke="#2D9CDB" stroke-width="2" stroke-linecap="round" stroke-linejoin="round"/>
<path d="M7.12256 8.74108V6.70386C7.12256 6.46311 7.17006 6.22471 7.26236 6.00228C7.35466 5.77985 7.48994 5.57775 7.66048 5.40751C8.00491 5.0637 8.47205 4.87054 8.95914 4.87054H23.0408C23.282 4.87054 23.5209 4.91796 23.7437 5.0101C23.9665 5.10223 24.169 5.23727 24.3395 5.40751C24.5101 5.57775 24.6453 5.77985 24.7376 6.00228C24.8299 6.22471 24.8774 6.46311 24.8774 6.70386V8.74108" stroke="#2D9CDB" stroke-width="2" stroke-linecap="round" stroke-linejoin="round"/>
<path d="M8.34717 4.87053V2.83331C8.34733 2.34714 8.54088 1.88092 8.88527 1.53714C9.22966 1.19337 9.69671 1.00016 10.1838 1H21.8167C22.3037 1.00016 22.7708 1.19337 23.1152 1.53714C23.4596 1.88092 23.6531 2.34714 23.6533 2.83331V4.87053" stroke="#2D9CDB" stroke-width="2" stroke-linecap="round" stroke-linejoin="round"/>
</svg>
