<svg width="26" height="28" viewBox="0 0 26 28" fill="none" xmlns="http://www.w3.org/2000/svg">
<path d="M1 23.2H25" stroke="#2D9CDB" stroke-width="2" stroke-linecap="round"/>
<path d="M1 13.6L25 13.6" stroke="#2D9CDB" stroke-width="2" stroke-linecap="round"/>
<path d="M1 4L25 4" stroke="#2D9CDB" stroke-width="2" stroke-linecap="round"/>
<path d="M18.6001 19.2C20.8092 19.2 22.6001 20.9909 22.6001 23.2C22.6001 25.4091 20.8092 27.2 18.6001 27.2C16.391 27.2 14.6001 25.4091 14.6001 23.2C14.6001 20.9909 16.391 19.2 18.6001 19.2Z" fill="#2D9CDB"/>
<path d="M7.3999 9.60004C9.60902 9.60004 11.3999 11.3909 11.3999 13.6C11.3999 15.8092 9.60902 17.6 7.3999 17.6C5.19077 17.6 3.3999 15.8092 3.3999 13.6C3.3999 11.3909 5.19077 9.60004 7.3999 9.60004Z" fill="#2D9CDB"/>
<path d="M18.6001 0C20.8092 0 22.6001 1.79088 22.6001 4C22.6001 6.20912 20.8092 8 18.6001 8C16.391 8 14.6001 6.20912 14.6001 4C14.6001 1.79088 16.391 0 18.6001 0Z" fill="#2D9CDB"/>
</svg>
