<svg width="33" height="45" viewBox="0 0 33 45" fill="none" xmlns="http://www.w3.org/2000/svg">
<path d="M1.5 0C0.675 0 0 0.675 0 1.5V42.89C0 43.715 0.675 44.39 1.5 44.39H31.085C31.91 44.39 32.585 43.715 32.585 42.89V9.135L23.45 0H1.5ZM20.98 3V9.74C20.98 10.735 21.795 11.55 22.79 11.55H29.585V41.39H3V3H20.98Z" fill="#2D9CDB"/>
<path d="M6.18994 30.38H25.9299V32.88H6.18994V30.38ZM6.18994 24.15H25.9299V26.65H6.18994V24.15ZM6.18994 17.925H25.9299V20.425H6.18994V17.925Z" fill="#2D9CDB"/>
<path d="M9.7002 14.065C11.357 14.065 12.7002 12.7219 12.7002 11.065C12.7002 9.40815 11.357 8.065 9.7002 8.065C8.04334 8.065 6.7002 9.40815 6.7002 11.065C6.7002 12.7219 8.04334 14.065 9.7002 14.065Z" fill="#2D9CDB"/>
</svg>
