<svg width="20" height="23" viewBox="0 0 20 23" fill="none" xmlns="http://www.w3.org/2000/svg">
<path d="M10.7967 5.30788C11.1675 4.84531 11.0931 4.16981 10.6304 3.79907C10.1679 3.42835 9.49239 3.50279 9.12173 3.96536L10.7967 5.30788ZM1.51843 15.1683L2.33135 15.8692C2.33974 15.8594 2.34794 15.8496 2.35597 15.8395L1.51843 15.1683ZM1.27371 15.7666L0.202448 15.6966L0.201504 15.7169L1.27371 15.7666ZM1.07335 20.0929L0.00114592 20.0432C-0.00131562 20.0964 0.000187065 20.1498 0.00566829 20.2029L1.07335 20.0929ZM2.19965 21.076L2.23474 22.1488C2.30632 22.1464 2.37748 22.1369 2.44717 22.1203L2.19965 21.076ZM6.49303 20.0585L6.74062 21.103L6.75722 21.0988L6.49303 20.0585ZM7.04402 19.7093L7.87207 20.3924L7.88137 20.3808L7.04402 19.7093ZM16.5254 9.60154C16.8962 9.139 16.8219 8.46351 16.3595 8.09265C15.8971 7.72178 15.2215 7.79606 14.8507 8.25857L16.5254 9.60154ZM9.12616 3.96507C8.75536 4.42751 8.82949 5.10305 9.29203 5.47394C9.75443 5.84481 10.4299 5.7706 10.8009 5.30817L9.12616 3.96507ZM12.2362 1.80298L13.0735 2.47454C13.0875 2.45695 13.1011 2.43891 13.1141 2.42047L12.2362 1.80298ZM14.5675 1.34502L15.2541 0.520056C15.2199 0.491606 15.184 0.465316 15.1466 0.441316L14.5675 1.34502ZM17.7689 4.00978L18.5285 3.25151C18.5052 3.22817 18.4809 3.20593 18.4555 3.18482L17.7689 4.00978ZM17.756 6.35397L17.0047 5.5874C16.9743 5.61722 16.9457 5.64882 16.9189 5.68204L17.756 6.35397ZM14.8507 8.25857C14.4796 8.72083 14.5539 9.39589 15.0161 9.76698C15.4784 10.1381 16.1543 10.0638 16.5254 9.60154L14.8507 8.25857ZM11.025 4.47756C10.9371 3.89131 10.3907 3.48727 9.80452 3.57513C9.21819 3.66297 8.81418 4.20944 8.90205 4.79568L11.025 4.47756ZM15.8326 9.99353C16.4199 9.91382 16.8314 9.37285 16.7516 8.78551C16.6718 8.19809 16.131 7.78661 15.5435 7.86643L15.8326 9.99353ZM9.12173 3.96536L0.680889 14.497L2.35597 15.8395L10.7967 5.30788L9.12173 3.96536ZM0.705504 14.4674C0.408745 14.8116 0.23203 15.2431 0.202448 15.6966L2.34478 15.8364C2.34399 15.8484 2.33928 15.86 2.33135 15.8692L0.705504 14.4674ZM0.201504 15.7169L0.00114592 20.0432L2.14555 20.1425L2.34591 15.8162L0.201504 15.7169ZM0.00566829 20.2029C0.122549 21.3362 1.09607 22.186 2.23474 22.1488L2.16455 20.0033C2.15997 20.0034 2.15773 20.0027 2.15627 20.0021C2.15422 20.0014 2.15152 20 2.14875 19.9975C2.14598 19.9951 2.14419 19.9927 2.14317 19.9908C2.14244 19.9894 2.1415 19.9872 2.14103 19.9827L0.00566829 20.2029ZM2.44717 22.1203L6.74062 21.103L6.24545 19.0141L1.95212 20.0316L2.44717 22.1203ZM6.75722 21.0988C7.19443 20.9877 7.58498 20.7404 7.87207 20.3924L6.21596 19.0262C6.2194 19.0222 6.22384 19.0194 6.22884 19.0181L6.75722 21.0988ZM7.88137 20.3808L16.5254 9.60154L14.8507 8.25857L6.20666 19.0378L7.88137 20.3808ZM10.8009 5.30817L13.0735 2.47454L11.3988 1.13144L9.12616 3.96507L10.8009 5.30817ZM13.1141 2.42047C13.3125 2.13836 13.6979 2.06264 13.9883 2.24873L15.1466 0.441316C13.8882 -0.365068 12.218 -0.0369674 11.3582 1.1855L13.1141 2.42047ZM13.8808 2.16998L17.0822 4.83474L18.4555 3.18482L15.2541 0.520056L13.8808 2.16998ZM17.0093 4.76806C17.1179 4.87696 17.1786 5.02479 17.1777 5.17867L19.3244 5.19046C19.3284 4.46386 19.0419 3.76579 18.5285 3.25151L17.0093 4.76806ZM17.1777 5.17867C17.177 5.33254 17.1146 5.47969 17.0047 5.5874L18.5074 7.12055C19.0263 6.61194 19.3204 5.91706 19.3244 5.19046L17.1777 5.17867ZM16.9189 5.68204L14.8507 8.25857L16.5254 9.60154L18.5931 7.02591L16.9189 5.68204ZM8.90205 4.79568C9.40194 8.13207 12.4896 10.4478 15.8326 9.99353L15.5435 7.86643C13.364 8.16257 11.351 6.65277 11.025 4.47756L8.90205 4.79568Z" fill="#2D9CDB"/>
</svg>
