<svg width="24" height="22" viewBox="0 0 24 22" fill="none" xmlns="http://www.w3.org/2000/svg">
<path d="M11.0846 10.7632H3.38099M3.16263 11.773L1.88989 15.575C1.19282 17.6572 0.844281 18.6983 1.09441 19.3394C1.31161 19.8962 1.77813 20.3183 2.35379 20.479C3.01667 20.664 4.01788 20.2134 6.0203 19.3124L18.8577 13.5356C20.8122 12.6559 21.7895 12.2163 22.0915 11.6053C22.3539 11.0746 22.3539 10.4517 22.0915 9.92099C21.7895 9.31018 20.8122 8.87037 18.8577 7.99083L5.99816 2.20407C4.00177 1.30571 3.00358 0.856519 2.34136 1.04079C1.76625 1.20081 1.29978 1.6218 1.08181 2.17755C0.830828 2.81748 1.17564 3.85635 1.86528 5.93409L3.1651 9.8503C3.28354 10.2071 3.34277 10.3856 3.36614 10.568C3.38689 10.73 3.38668 10.8939 3.36552 11.0558C3.34167 11.2382 3.282 11.4165 3.16263 11.773Z" stroke="#2D9CDB" stroke-width="2" stroke-linecap="round" stroke-linejoin="round"/>
</svg>
