<svg width="128" height="37" viewBox="0 0 128 37" fill="none" xmlns="http://www.w3.org/2000/svg">
<path d="M8.51994 8.88V15.696H19.5119V22.032H8.51994V29.424H20.9519V36H0.311938V2.304H20.9519V8.88H8.51994ZM24.6487 22.56C24.6487 19.808 25.1607 17.392 26.1847 15.312C27.2407 13.232 28.6647 11.632 30.4567 10.512C32.2487 9.392 34.2487 8.832 36.4567 8.832C38.2167 8.832 39.8167 9.2 41.2567 9.936C42.7287 10.672 43.8807 11.664 44.7127 12.912V0.48H52.9207V36H44.7127V32.16C43.9447 33.44 42.8407 34.464 41.4007 35.232C39.9927 36 38.3447 36.384 36.4567 36.384C34.2487 36.384 32.2487 35.824 30.4567 34.704C28.6647 33.552 27.2407 31.936 26.1847 29.856C25.1607 27.744 24.6487 25.312 24.6487 22.56ZM44.7127 22.608C44.7127 20.56 44.1367 18.944 42.9847 17.76C41.8647 16.576 40.4887 15.984 38.8567 15.984C37.2247 15.984 35.8327 16.576 34.6807 17.76C33.5607 18.912 33.0007 20.512 33.0007 22.56C33.0007 24.608 33.5607 26.24 34.6807 27.456C35.8327 28.64 37.2247 29.232 38.8567 29.232C40.4887 29.232 41.8647 28.64 42.9847 27.456C44.1367 26.272 44.7127 24.656 44.7127 22.608ZM71.0508 36.384C68.4268 36.384 66.0588 35.824 63.9468 34.704C61.8668 33.584 60.2188 31.984 59.0028 29.904C57.8188 27.824 57.2268 25.392 57.2268 22.608C57.2268 19.856 57.8348 17.44 59.0508 15.36C60.2668 13.248 61.9308 11.632 64.0428 10.512C66.1548 9.392 68.5228 8.832 71.1468 8.832C73.7708 8.832 76.1388 9.392 78.2508 10.512C80.3628 11.632 82.0268 13.248 83.2428 15.36C84.4588 17.44 85.0668 19.856 85.0668 22.608C85.0668 25.36 84.4428 27.792 83.1948 29.904C81.9788 31.984 80.2988 33.584 78.1548 34.704C76.0428 35.824 73.6748 36.384 71.0508 36.384ZM71.0508 29.28C72.6188 29.28 73.9468 28.704 75.0348 27.552C76.1548 26.4 76.7148 24.752 76.7148 22.608C76.7148 20.464 76.1708 18.816 75.0828 17.664C74.0268 16.512 72.7148 15.936 71.1468 15.936C69.5468 15.936 68.2188 16.512 67.1628 17.664C66.1068 18.784 65.5788 20.432 65.5788 22.608C65.5788 24.752 66.0908 26.4 67.1148 27.552C68.1708 28.704 69.4828 29.28 71.0508 29.28ZM105.789 36L97.6293 24.768V36H89.4213V0.48H97.6293V20.112L105.741 9.216H115.869L104.733 22.656L115.965 36H105.789Z" fill="#333333"/>
<path d="M122.933 36.384C121.493 36.384 120.309 35.968 119.381 35.136C118.485 34.272 118.037 33.216 118.037 31.968C118.037 30.688 118.485 29.616 119.381 28.752C120.309 27.888 121.493 27.456 122.933 27.456C124.341 27.456 125.493 27.888 126.389 28.752C127.317 29.616 127.781 30.688 127.781 31.968C127.781 33.216 127.317 34.272 126.389 35.136C125.493 35.968 124.341 36.384 122.933 36.384Z" fill="#00B074"/>
</svg>
